<svg height="464pt" viewBox="-72 0 464 464" width="464pt" xmlns="http://www.w3.org/2000/svg"><path d="m160 40-40-40-40 40zm0 0" fill="#787680"/><path d="m120 40h40v64h-40zm0 0" fill="#ffb655"/><path d="m80 40h40v64h-40zm0 0" fill="#ff6243"/><path d="m192 0v104h96v-104zm0 0" fill="#ffde55"/><path d="m48 368h16v-264h-16c-26.507812 0-48 21.492188-48 48v264c0-26.507812 21.492188-48 48-48zm0 0" fill="#3d9ae2"/><path d="m64 104h256v264h-256zm0 0" fill="#5aaae7"/><path d="m320 104v264h-238.640625c102.785156-60.503906 182.644531-153.332031 227.121094-264zm0 0" fill="#3d9ae2"/><path d="m64 368h-16c-26.507812 0-48 21.492188-48 48 .0390625 26.492188 21.507812 47.960938 48 48h272v-96zm0 0" fill="#787680"/><path d="m320 368v16h-272c-23.417969-.007812-43.410156 16.90625-47.28125 40-.484375-2.640625-.72265625-5.316406-.71875-8 0-26.507812 21.492188-48 48-48zm0 0" fill="#57565c"/><path d="m104 168h176v80h-176zm0 0" fill="#ffb655"/><path d="m80 88h40v16h-40zm0 0" fill="#ff5023"/><path d="m120 88h40v16h-40zm0 0" fill="#ffa733"/><path d="m192 88h96v16h-96zm0 0" fill="#ffd422"/><path d="m264 32h24v16h-24zm0 0" fill="#f1f2f2"/><path d="m248 64h40v16h-40zm0 0" fill="#f1f2f2"/><path d="m48 408h272v16h-272zm0 0" fill="#3e3d42"/><path d="m56 104h16v264h-16zm0 0" fill="#1a6fb0"/></svg>