<svg height="512pt" viewBox="0 0 512 512" width="512pt" xmlns="http://www.w3.org/2000/svg"><path d="m512 256c0 141.386719-114.613281 256-256 256-61.136719 0-117.246094-21.421875-161.269531-57.175781-6.71875-5.453125-13.144531-11.234375-19.269531-17.324219-5.148438-5.132812-10.09375-10.472656-14.792969-16.019531-37.847657-44.617188-60.667969-102.390625-60.667969-165.480469 0-141.386719 114.613281-256 256-256s256 114.613281 256 256zm0 0" fill="#ffd62c"/><path d="m423.089844 124.140625-35.234375-35.238281 116.125-87.839844c4.59375-3.488281 10.441406 2.355469 6.960937 6.960938l-5.691406 7.519531-21.285156 28.144531zm0 0" fill="#eae0d3"/><path d="m439.714844 113.691406-38.089844 38.089844-43.332031-43.335938 38.085937-38.085937c7.285156-7.285156 19.085938-7.277344 26.371094.007813l16.957031 16.957031c7.285157 7.285156 7.292969 19.082031.007813 26.367187zm0 0" fill="#2dc188"/><path d="m439.714844 113.691406-38.089844 38.089844-26.722656-26.726562 38.085937-38.085938c7.285157-7.285156 19.085938-7.277344 26.371094.007812l.347656.347657c7.285157 7.285156 7.292969 19.082031.007813 26.367187zm0 0" fill="#55d8a9"/><path d="m384.53125 191.972656c-16.542969-14.222656-32.257812-29.273437-47.148438-45.164062-5.917968-6.316406-11.710937-12.761719-17.363281-19.34375 8.128907-11.214844 17.261719-21.425782 27.414063-30.617188 9.234375-8.363281 23.308594-8.238281 32.480468.207032 4.859376 4.476562 9.648438 9.027343 14.355469 13.660156 7.0625 6.945312 13.957031 14.078125 20.679688 21.375 8.4375 9.164062 8.5625 23.238281.199219 32.472656-9.183594 10.160156-19.394532 19.292969-30.617188 27.410156zm0 0" fill="#eae0d3"/><path d="m384.53125 191.972656c-16.542969-14.222656-32.257812-29.273437-47.148438-45.164062 8.527344-11.75 18.125-22.425782 28.765626-32.058594 7.847656-7.109375 19.003906-8.421875 28.121093-4.035156 7.0625 6.945312 13.957031 14.074218 20.679688 21.375 8.4375 9.160156 8.5625 23.238281.199219 32.472656-9.183594 10.160156-19.394532 19.292969-30.617188 27.410156zm0 0" fill="#fcf8f2"/><path d="m211.828125 435.484375c-8.390625 7.507813-20.878906 8.097656-29.957031 1.441406-13.332032-9.753906-26.070313-20.097656-38.199219-31.046875-11.816406-10.644531-23.066406-21.871094-33.75-33.648437-11.320313-12.472657-22.003906-25.5625-32.054687-39.304688-6.648438-9.074219-6.066407-21.566406 1.449218-29.953125 64.6875-72.207031 133.140625-140.664062 205.351563-205.351562 8.382812-7.511719 20.878906-8.097656 29.957031-1.453125 40.035156 29.300781 74.699219 63.96875 104.003906 104 6.648438 9.089843 6.058594 21.574219-1.449218 29.96875-64.695313 72.199219-133.148438 140.65625-205.351563 205.347656zm0 0" fill="#9dbdc6"/><path d="m407.835938 221.777344c-37.367188 41.703125-76.332032 82.464844-116.507813 121.921875-28.714844 28.199219-58.054687 55.734375-87.867187 82.453125-3.9375 3.507812-9.902344 3.800781-14.179688.667968-12.988281-9.507812-25.503906-19.6875-37.207031-30.25-5.894531-5.308593-11.722657-10.835937-17.335938-16.449218-5.277343-5.277344-10.5-10.773438-15.535156-16.308594-11.003906-12.132812-21.503906-25.015625-31.210937-38.285156-3.144532-4.292969-2.863282-10.25.65625-14.191406 27.890624-31.136719 56.667968-61.742188 86.183593-91.667969 26.449219-26.832031 53.5-53.121094 81.011719-78.730469 12.308594-11.464844 24.703125-22.789062 37.1875-33.972656 3.941406-3.53125 9.90625-3.8125 14.191406-.675782 16.265625 11.910157 31.804688 24.886719 46.308594 38.691407.007812 0 .007812.011719.019531.011719 2.78125 2.640624 5.527344 5.316406 8.234375 8.023437 16.804688 16.789063 32.519532 35.148437 46.726563 54.5625 3.136719 4.285156 2.84375 10.25-.675781 14.199219zm0 0" fill="#c1dce5"/><path d="m407.835938 221.777344c-37.367188 41.703125-76.332032 82.464844-116.507813 121.921875l-116.496094-124.03125c26.445313-26.832031 53.5-53.121094 81.011719-78.730469 22.257812 22.253906 56.925781-20.566406 97.6875 4.042969.007812 0 .007812.011719.019531.011719 2.78125 2.640624 5.527344 5.316406 8.234375 8.023437 16.804688 16.789063 32.519532 35.148437 46.726563 54.5625 3.136719 4.285156 2.84375 10.25-.675781 14.199219zm0 0" fill="#ff648d"/><path d="m177.371094 372.183594-82.640625 82.640625c-6.71875-5.453125-13.144531-11.234375-19.269531-17.324219-5.148438-5.132812-10.09375-10.472656-14.792969-16.019531l83.003906-82.996094zm0 0" fill="#eae0d3"/><path d="m177.371094 372.183594-82.640625 82.640625c-6.71875-5.453125-13.144531-11.234375-19.269531-17.324219l83.613281-83.613281zm0 0" fill="#fcf8f2"/><path d="m296.339844 315.605469-96.09375-96.09375c-7.496094-7.492188-19.648438-7.492188-27.140625 0l-3.671875 3.671875c-7.496094 7.496094-7.496094 19.644531 0 27.140625l96.09375 96.09375c7.496094 7.496093 19.648437 7.496093 27.140625 0l3.671875-3.667969c7.492187-7.496094 7.492187-19.648438 0-27.144531zm0 0" fill="#9dbdc6"/><path d="m243.957031 305.59375-100.285156 100.285156c-11.816406-10.644531-23.066406-21.871094-33.75-33.648437l100.335937-100.335938zm0 0" fill="#9dbdc6"/><path d="m233.324219 492.339844c-7.714844 7.714844-20.21875 7.714844-27.929688 0l-182.941406-182.941406c-3.855469-3.855469-5.785156-8.917969-5.785156-13.96875 0-5.054688 1.929687-10.101563 5.785156-13.957032 7.714844-7.714844 20.214844-7.714844 27.929687 0l182.941407 182.9375c3.855469 3.859375 5.78125 8.921875 5.78125 13.972656.003906 5.054688-1.925781 10.101563-5.78125 13.957032zm0 0" fill="#eae0d3"/><path d="m233.324219 492.339844c-7.714844 7.714844-20.21875 7.714844-27.929688 0l-132.386719-132.386719c-3.859374-3.859375-5.785156-8.917969-5.785156-13.972656 0-5.054688 1.925782-10.097657 5.785156-13.957031 7.710938-7.710938 20.214844-7.710938 27.929688 0l132.386719 132.386718c3.855469 3.859375 5.785156 8.921875 5.785156 13.972656 0 5.054688-1.929687 10.101563-5.785156 13.957032zm0 0" fill="#fcf8f2"/><path d="m483.964844 43.6875c-1.449219-.269531-2.832032-.957031-3.953125-2.078125-2.917969-2.917969-2.917969-7.660156.007812-10.585937l15.085938-15.089844c2.777343-2.777344 7.210937-2.910156 10.144531-.390625zm0 0" fill="#5c5560"/><g fill="#fff"><path d="m349.925781 236.214844c-7.445312-7.445313-7.445312-19.515625 0-26.960938l5.722657-5.722656c7.445312-7.445312 19.515624-7.445312 26.960937 0s7.445313 19.515625 0 26.960938l-5.726563 5.722656c-7.445312 7.445312-19.515624 7.445312-26.957031 0zm0 0"/><path d="m195.375 390.765625c-7.445312-7.445313-7.445312-19.515625 0-26.960937l116.015625-116.015626c7.445313-7.445312 19.515625-7.445312 26.957031 0 7.445313 7.445313 7.445313 19.515626 0 26.960938l-116.011718 116.015625c-7.445313 7.445313-19.515626 7.445313-26.960938 0zm0 0"/></g></svg>